<svg width="39" height="36" viewBox="0 0 39 36" fill="none" xmlns="http://www.w3.org/2000/svg">
<path d="M31.5895 21H30.7746C30.7545 21 30.7344 20.9894 30.7143 20.9683C30.6539 20.9471 30.6137 20.9365 30.5936 20.9365C30.171 20.873 29.7686 20.7355 29.3863 20.5238C29.004 20.3122 28.672 20.0476 28.3903 19.7302C28.1087 19.4127 27.8773 19.0529 27.6962 18.6508C27.5151 18.2487 27.4145 17.8254 27.3944 17.381C27.3139 16.3862 27.5201 15.5079 28.0131 14.746C28.506 13.9841 29.1952 13.4656 30.0805 13.1905C30.1408 13.1693 30.2113 13.1481 30.2917 13.127C30.3722 13.1058 30.4577 13.0847 30.5483 13.0635C30.6388 13.0423 30.7143 13.0212 30.7746 13H31.6499L31.7706 13.0635C32.5553 13.1905 33.2344 13.5344 33.8078 14.0952C34.3813 14.6561 34.7485 15.3492 34.9095 16.1746L35 16.5556V17.4762C34.9799 17.5397 34.9598 17.582 34.9396 17.6032C34.8189 18.4286 34.497 19.1323 33.9738 19.7143C33.4507 20.2963 32.8068 20.6825 32.0423 20.873L31.7706 20.9683C31.6901 20.9894 31.6298 21 31.5895 21ZM8.41046 13H9.22535C9.24547 13 9.26559 13.0106 9.28571 13.0317L9.40644 13.0635C9.98994 13.1481 10.5181 13.3598 10.9909 13.6984C11.4638 14.037 11.8461 14.4656 12.1378 14.9841C12.4296 15.5026 12.5855 16.0582 12.6056 16.6508C12.666 17.6243 12.4497 18.4974 11.9567 19.2698C11.4638 20.0423 10.7746 20.5661 9.88934 20.8413C9.82897 20.8413 9.60765 20.8942 9.22535 21H8.41046C8.39034 21 8.36016 20.9894 8.31992 20.9683C8.27968 20.9471 8.2495 20.9365 8.22938 20.9365C6.68008 20.6402 5.65392 19.6878 5.15091 18.0794C5.13078 18.0159 5.11066 17.9471 5.09054 17.873C5.07042 17.7989 5.05533 17.7196 5.04527 17.6349C5.03521 17.5503 5.02012 17.4868 5 17.4444V16.5556L5.03018 16.5238C5.0503 16.4603 5.06036 16.418 5.06036 16.3968C5.14085 15.8466 5.31187 15.3439 5.57344 14.8889C5.83501 14.4339 6.17203 14.0529 6.58451 13.746C6.99698 13.4392 7.46479 13.2222 7.98793 13.0952C8.06841 13.0741 8.20926 13.0423 8.41046 13ZM19.5775 13H20.4225L20.498 13.0317L20.6036 13.0635C21.4688 13.2116 22.2082 13.6296 22.8219 14.3175C23.4356 15.0053 23.7626 15.7937 23.8028 16.6825C23.8431 17.6984 23.6016 18.5926 23.0785 19.3651C22.5553 20.1376 21.8511 20.6402 20.9658 20.873C20.8451 20.8942 20.664 20.9365 20.4225 21H19.5775C19.5573 21 19.5372 20.9894 19.5171 20.9683L19.3964 20.9365C18.5312 20.8095 17.7918 20.3968 17.1781 19.6984C16.5644 19 16.2374 18.2063 16.1972 17.3175C16.1771 16.9153 16.2072 16.5291 16.2877 16.1587C16.3682 15.7884 16.4889 15.4392 16.6499 15.1111C16.8109 14.7831 17.007 14.4868 17.2384 14.2222C17.4698 13.9577 17.7364 13.7354 18.0382 13.5556C18.34 13.3757 18.672 13.2328 19.0342 13.127C19.1549 13.1058 19.336 13.0635 19.5775 13Z" fill="#707070"/>
</svg>
