<svg width="23" height="23" viewBox="0 0 23 23" fill="none" xmlns="http://www.w3.org/2000/svg">
<path d="M16.83 13.7695C17.6908 12.3557 18.1461 10.7323 18.146 9.077C18.146 4.0625 14.0885 0.002 9.073 0C4.062 0.0015 0 4.0625 0 9.076C0 14.085 4.0625 18.1455 9.076 18.1455C10.796 18.1455 12.3985 17.6595 13.768 16.829L19.9395 23L23 19.938L16.83 13.7695ZM9.075 14.69C5.974 14.6825 3.467 12.1765 3.4615 9.082C3.46362 7.59376 4.05568 6.16707 5.10793 5.11464C6.16018 4.0622 7.58676 3.46988 9.075 3.4675C12.1745 3.4755 14.6825 5.9815 14.689 9.082C14.6825 12.173 12.1735 14.6825 9.075 14.69Z" fill="#707070"/>
</svg>
