<svg width="55" height="41" viewBox="0 0 55 41" fill="none" xmlns="http://www.w3.org/2000/svg">
<path d="M32.1617 5.74147L23.8214 0.40625L15 6.5V26L23.8383 20.2585L32.1786 25.5938L41 19.5V0L32.1617 5.74147ZM31.25 22.5759L24.75 18.3973V3.42411L31.25 7.60268V22.5759Z" fill="#707070"/>
<path d="M16.9238 28.8906L19.248 34.6914L21.5723 28.8906H22.7881V36H21.8506V33.2314L21.9385 30.2432L19.6045 36H18.8867L16.5576 30.2578L16.6504 33.2314V36H15.7129V28.8906H16.9238ZM27.5635 36C27.5114 35.8958 27.4691 35.7103 27.4365 35.4434C27.0166 35.8796 26.5153 36.0977 25.9326 36.0977C25.4118 36.0977 24.9837 35.9512 24.6484 35.6582C24.3164 35.362 24.1504 34.9876 24.1504 34.5352C24.1504 33.985 24.3587 33.5586 24.7754 33.2559C25.1953 32.9499 25.7845 32.7969 26.543 32.7969H27.4219V32.3818C27.4219 32.0661 27.3275 31.8154 27.1387 31.6299C26.9499 31.4411 26.6715 31.3467 26.3037 31.3467C25.9814 31.3467 25.7113 31.4281 25.4932 31.5908C25.2751 31.7536 25.166 31.9505 25.166 32.1816H24.2578C24.2578 31.918 24.3506 31.6641 24.5361 31.4199C24.7249 31.1725 24.9788 30.9772 25.2979 30.834C25.6201 30.6908 25.9733 30.6191 26.3574 30.6191C26.9661 30.6191 27.443 30.7721 27.7881 31.0781C28.1331 31.3809 28.3122 31.7992 28.3252 32.333V34.7646C28.3252 35.2497 28.387 35.6354 28.5107 35.9219V36H27.5635ZM26.0645 35.3115C26.3477 35.3115 26.6162 35.2383 26.8701 35.0918C27.124 34.9453 27.3079 34.7549 27.4219 34.5205V33.4365H26.7139C25.6071 33.4365 25.0537 33.7604 25.0537 34.4082C25.0537 34.6914 25.1481 34.9128 25.3369 35.0723C25.5257 35.2318 25.7682 35.3115 26.0645 35.3115ZM34.2041 33.417C34.2041 34.221 34.0202 34.8688 33.6523 35.3604C33.2845 35.8519 32.7865 36.0977 32.1582 36.0977C31.5169 36.0977 31.0124 35.8942 30.6445 35.4873V38.0312H29.7412V30.7168H30.5664L30.6104 31.3027C30.9782 30.847 31.4893 30.6191 32.1436 30.6191C32.7783 30.6191 33.2796 30.8584 33.6475 31.3369C34.0186 31.8154 34.2041 32.4811 34.2041 33.334V33.417ZM33.3008 33.3145C33.3008 32.7188 33.1738 32.2484 32.9199 31.9033C32.666 31.5583 32.3177 31.3857 31.875 31.3857C31.3281 31.3857 30.918 31.6283 30.6445 32.1133V34.6377C30.9147 35.1195 31.3281 35.3604 31.8848 35.3604C32.3177 35.3604 32.6611 35.1895 32.915 34.8477C33.1722 34.5026 33.3008 33.9915 33.3008 33.3145ZM38.6182 36C38.5661 35.8958 38.5238 35.7103 38.4912 35.4434C38.0713 35.8796 37.57 36.0977 36.9873 36.0977C36.4665 36.0977 36.0384 35.9512 35.7031 35.6582C35.3711 35.362 35.2051 34.9876 35.2051 34.5352C35.2051 33.985 35.4134 33.5586 35.8301 33.2559C36.25 32.9499 36.8392 32.7969 37.5977 32.7969H38.4766V32.3818C38.4766 32.0661 38.3822 31.8154 38.1934 31.6299C38.0046 31.4411 37.7262 31.3467 37.3584 31.3467C37.0361 31.3467 36.766 31.4281 36.5479 31.5908C36.3298 31.7536 36.2207 31.9505 36.2207 32.1816H35.3125C35.3125 31.918 35.4053 31.6641 35.5908 31.4199C35.7796 31.1725 36.0335 30.9772 36.3525 30.834C36.6748 30.6908 37.028 30.6191 37.4121 30.6191C38.0208 30.6191 38.4977 30.7721 38.8428 31.0781C39.1878 31.3809 39.3669 31.7992 39.3799 32.333V34.7646C39.3799 35.2497 39.4417 35.6354 39.5654 35.9219V36H38.6182ZM37.1191 35.3115C37.4023 35.3115 37.6709 35.2383 37.9248 35.0918C38.1787 34.9453 38.3626 34.7549 38.4766 34.5205V33.4365H37.7686C36.6618 33.4365 36.1084 33.7604 36.1084 34.4082C36.1084 34.6914 36.2028 34.9128 36.3916 35.0723C36.5804 35.2318 36.8229 35.3115 37.1191 35.3115Z" fill="#707070"/>
</svg>
