<svg width="33" height="33" viewBox="0 0 33 33" fill="none" xmlns="http://www.w3.org/2000/svg">
<path fill-rule="evenodd" clip-rule="evenodd" d="M33 17.5312L20.625 29.9062L14.4375 23.7188L17.5312 20.625L20.625 23.7188L29.9062 14.4375L33 17.5312ZM11.7562 25.1625L13.4062 26.8125H4.125C2.99062 26.8125 2.0625 25.8844 2.0625 24.75V6.1875C2.0625 5.05312 2.99062 4.125 4.125 4.125H18.5625C19.6969 4.125 20.625 5.05312 20.625 6.1875V19.5938L18.975 17.9437C18.1706 17.1394 16.8506 17.1394 16.0463 17.9437L11.7562 22.275C11.565 22.4658 11.4134 22.6925 11.3099 22.942C11.2064 23.1915 11.1531 23.4589 11.1531 23.7291C11.1531 23.9992 11.2064 24.2667 11.3099 24.5162C11.4134 24.7657 11.565 24.9923 11.7562 25.1831V25.1625V25.1625ZM8.25 8.25H18.5625V6.1875H8.25V8.25ZM8.25 12.375H18.5625V10.3125H8.25V12.375ZM8.25 16.5H14.4375V14.4375H8.25V16.5ZM6.1875 18.5625H4.125V20.625H6.1875V18.5625ZM6.1875 14.4375H4.125V16.5H6.1875V14.4375ZM6.1875 10.3125H4.125V12.375H6.1875V10.3125ZM6.1875 6.1875H4.125V8.25H6.1875V6.1875Z" fill="#707070"/>
</svg>
