<svg width="55" height="43" viewBox="0 0 55 43" fill="none" xmlns="http://www.w3.org/2000/svg">
<path fill-rule="evenodd" clip-rule="evenodd" d="M46 17.5312L33.625 29.9062L27.4375 23.7188L30.5312 20.625L33.625 23.7188L42.9062 14.4375L46 17.5312ZM24.7562 25.1625L26.4062 26.8125H17.125C15.9906 26.8125 15.0625 25.8844 15.0625 24.75V6.1875C15.0625 5.05312 15.9906 4.125 17.125 4.125H31.5625C32.6969 4.125 33.625 5.05312 33.625 6.1875V19.5938L31.975 17.9437C31.1706 17.1394 29.8506 17.1394 29.0463 17.9437L24.7562 22.275C24.565 22.4658 24.4134 22.6925 24.3099 22.942C24.2064 23.1915 24.1531 23.4589 24.1531 23.7291C24.1531 23.9992 24.2064 24.2667 24.3099 24.5162C24.4134 24.7657 24.565 24.9923 24.7562 25.1831V25.1625ZM21.25 8.25H31.5625V6.1875H21.25V8.25ZM21.25 12.375H31.5625V10.3125H21.25V12.375ZM21.25 16.5H27.4375V14.4375H21.25V16.5ZM19.1875 18.5625H17.125V20.625H19.1875V18.5625ZM19.1875 14.4375H17.125V16.5H19.1875V14.4375ZM19.1875 10.3125H17.125V12.375H19.1875V10.3125ZM19.1875 6.1875H17.125V8.25H19.1875V6.1875Z" fill="#707070"/>
<path d="M12.7051 34.7139H9.62402V37.2334H13.2031V38H8.68652V30.8906H13.1543V31.6621H9.62402V33.9473H12.7051V34.7139ZM15.083 32.7168L15.1123 33.3809C15.516 32.873 16.0433 32.6191 16.6943 32.6191C17.8109 32.6191 18.374 33.249 18.3838 34.5088V38H17.4805V34.5039C17.4772 34.123 17.3893 33.8415 17.2168 33.6592C17.0475 33.4769 16.7822 33.3857 16.4209 33.3857C16.1279 33.3857 15.8708 33.4639 15.6494 33.6201C15.4281 33.7764 15.2555 33.9814 15.1318 34.2354V38H14.2285V32.7168H15.083ZM20.9717 31.4375V32.7168H21.958V33.415H20.9717V36.6914C20.9717 36.903 21.0156 37.0625 21.1035 37.1699C21.1914 37.2741 21.3411 37.3262 21.5527 37.3262C21.6569 37.3262 21.8001 37.3066 21.9824 37.2676V38C21.7448 38.0651 21.5137 38.0977 21.2891 38.0977C20.8854 38.0977 20.5811 37.9756 20.376 37.7314C20.1709 37.4873 20.0684 37.1406 20.0684 36.6914V33.415H19.1064V32.7168H20.0684V31.4375H20.9717ZM25.5713 33.5273C25.4346 33.5046 25.2865 33.4932 25.127 33.4932C24.5345 33.4932 24.1325 33.7454 23.9209 34.25V38H23.0176V32.7168H23.8965L23.9111 33.3271C24.2074 32.8551 24.6273 32.6191 25.1709 32.6191C25.3467 32.6191 25.4801 32.6419 25.5713 32.6875V33.5273ZM28.501 38.0977C27.7848 38.0977 27.2021 37.8633 26.7529 37.3945C26.3037 36.9225 26.0791 36.2926 26.0791 35.5049V35.3389C26.0791 34.8148 26.1784 34.3477 26.377 33.9375C26.5788 33.5241 26.8587 33.2018 27.2168 32.9707C27.5781 32.7363 27.9688 32.6191 28.3887 32.6191C29.0755 32.6191 29.6094 32.8454 29.9902 33.2979C30.3711 33.7503 30.5615 34.3981 30.5615 35.2412V35.6172H26.9824C26.9954 36.138 27.1468 36.5596 27.4365 36.8818C27.7295 37.2008 28.1006 37.3604 28.5498 37.3604C28.8688 37.3604 29.139 37.2952 29.3604 37.165C29.5817 37.0348 29.7754 36.8623 29.9414 36.6475L30.4932 37.0771C30.0505 37.7575 29.3864 38.0977 28.501 38.0977ZM28.3887 33.3613C28.0241 33.3613 27.7181 33.4948 27.4707 33.7617C27.2233 34.0254 27.0703 34.3965 27.0117 34.875H29.6582V34.8066C29.6322 34.3477 29.5085 33.9928 29.2871 33.7422C29.0658 33.4883 28.7663 33.3613 28.3887 33.3613ZM31.3965 35.3145C31.3965 34.4909 31.5869 33.8366 31.9678 33.3516C32.3486 32.8633 32.8532 32.6191 33.4814 32.6191C34.126 32.6191 34.6289 32.847 34.9902 33.3027L35.0342 32.7168H35.8594V37.873C35.8594 38.5566 35.6559 39.0954 35.249 39.4893C34.8454 39.8831 34.3018 40.0801 33.6182 40.0801C33.2373 40.0801 32.8646 39.9987 32.5 39.8359C32.1354 39.6732 31.8571 39.4502 31.665 39.167L32.1338 38.625C32.5212 39.1035 32.9948 39.3428 33.5547 39.3428C33.9941 39.3428 34.3359 39.2191 34.5801 38.9717C34.8275 38.7243 34.9512 38.376 34.9512 37.9268V37.4727C34.5898 37.8893 34.0967 38.0977 33.4717 38.0977C32.8532 38.0977 32.3519 37.8486 31.9678 37.3506C31.5869 36.8525 31.3965 36.1738 31.3965 35.3145ZM32.3047 35.417C32.3047 36.0127 32.4268 36.4814 32.6709 36.8232C32.915 37.1618 33.2568 37.3311 33.6963 37.3311C34.266 37.3311 34.6842 37.0723 34.9512 36.5547V34.1426C34.6745 33.638 34.2594 33.3857 33.7061 33.3857C33.2666 33.3857 32.9232 33.5566 32.6758 33.8984C32.4284 34.2402 32.3047 34.7464 32.3047 35.417ZM40.4883 38C40.4362 37.8958 40.3939 37.7103 40.3613 37.4434C39.9414 37.8796 39.4401 38.0977 38.8574 38.0977C38.3366 38.0977 37.9085 37.9512 37.5732 37.6582C37.2412 37.362 37.0752 36.9876 37.0752 36.5352C37.0752 35.985 37.2835 35.5586 37.7002 35.2559C38.1201 34.9499 38.7093 34.7969 39.4678 34.7969H40.3467V34.3818C40.3467 34.0661 40.2523 33.8154 40.0635 33.6299C39.8747 33.4411 39.5964 33.3467 39.2285 33.3467C38.9062 33.3467 38.6361 33.4281 38.418 33.5908C38.1999 33.7536 38.0908 33.9505 38.0908 34.1816H37.1826C37.1826 33.918 37.2754 33.6641 37.4609 33.4199C37.6497 33.1725 37.9036 32.9772 38.2227 32.834C38.5449 32.6908 38.8981 32.6191 39.2822 32.6191C39.891 32.6191 40.3678 32.7721 40.7129 33.0781C41.0579 33.3809 41.237 33.7992 41.25 34.333V36.7646C41.25 37.2497 41.3118 37.6354 41.4355 37.9219V38H40.4883ZM38.9893 37.3115C39.2725 37.3115 39.541 37.2383 39.7949 37.0918C40.0488 36.9453 40.2327 36.7549 40.3467 36.5205V35.4365H39.6387C38.5319 35.4365 37.9785 35.7604 37.9785 36.4082C37.9785 36.6914 38.0729 36.9128 38.2617 37.0723C38.4505 37.2318 38.693 37.3115 38.9893 37.3115ZM45.7422 36.5986C45.7422 36.3545 45.6494 36.1657 45.4639 36.0322C45.2816 35.8955 44.9609 35.7783 44.502 35.6807C44.0462 35.583 43.6833 35.4658 43.4131 35.3291C43.1462 35.1924 42.9476 35.0296 42.8174 34.8408C42.6904 34.652 42.627 34.4274 42.627 34.167C42.627 33.734 42.8092 33.3678 43.1738 33.0684C43.5417 32.7689 44.0104 32.6191 44.5801 32.6191C45.179 32.6191 45.6641 32.7738 46.0352 33.083C46.4095 33.3923 46.5967 33.7878 46.5967 34.2695H45.6885C45.6885 34.0221 45.5827 33.8089 45.3711 33.6299C45.1628 33.4508 44.8991 33.3613 44.5801 33.3613C44.2513 33.3613 43.9941 33.4329 43.8086 33.5762C43.623 33.7194 43.5303 33.9066 43.5303 34.1377C43.5303 34.3558 43.6165 34.5202 43.7891 34.6309C43.9616 34.7415 44.2725 34.8473 44.7217 34.9482C45.1742 35.0492 45.5404 35.1696 45.8203 35.3096C46.1003 35.4495 46.307 35.6188 46.4404 35.8174C46.5771 36.0127 46.6455 36.252 46.6455 36.5352C46.6455 37.0072 46.4567 37.3864 46.0791 37.6729C45.7015 37.9561 45.2116 38.0977 44.6094 38.0977C44.1862 38.0977 43.8118 38.0228 43.4863 37.873C43.1608 37.7233 42.9053 37.515 42.7197 37.248C42.5374 36.9779 42.4463 36.6865 42.4463 36.374H43.3496C43.3659 36.6768 43.4863 36.9176 43.7109 37.0967C43.9388 37.2725 44.2383 37.3604 44.6094 37.3604C44.9512 37.3604 45.2246 37.292 45.4297 37.1553C45.638 37.0153 45.7422 36.8298 45.7422 36.5986Z" fill="#707070"/>
</svg>
