<svg width="55" height="40" viewBox="0 0 55 40" fill="none" xmlns="http://www.w3.org/2000/svg">
<path d="M16.8066 33.7549L18.8379 27.8906H19.8633L17.2266 35H16.3965L13.7646 27.8906H14.7852L16.8066 33.7549ZM20.2148 32.3096C20.2148 31.792 20.3158 31.3265 20.5176 30.9131C20.7227 30.4997 21.0059 30.1807 21.3672 29.9561C21.7318 29.7314 22.1468 29.6191 22.6123 29.6191C23.3317 29.6191 23.9128 29.8682 24.3555 30.3662C24.8014 30.8643 25.0244 31.5267 25.0244 32.3535V32.417C25.0244 32.9313 24.9251 33.3936 24.7266 33.8037C24.5312 34.2106 24.2497 34.528 23.8818 34.7559C23.5173 34.9837 23.0973 35.0977 22.6221 35.0977C21.9059 35.0977 21.3249 34.8486 20.8789 34.3506C20.4362 33.8525 20.2148 33.1934 20.2148 32.373V32.3096ZM21.123 32.417C21.123 33.0029 21.2581 33.4733 21.5283 33.8281C21.8018 34.1829 22.1663 34.3604 22.6221 34.3604C23.0811 34.3604 23.4456 34.1813 23.7158 33.8232C23.986 33.4619 24.1211 32.9574 24.1211 32.3096C24.1211 31.7301 23.9827 31.2614 23.7061 30.9033C23.4326 30.542 23.068 30.3613 22.6123 30.3613C22.1663 30.3613 21.8066 30.5387 21.5332 30.8936C21.2598 31.2484 21.123 31.7562 21.123 32.417ZM27.1387 35H26.2354V27.5H27.1387V35ZM30.332 33.7744L31.6406 29.7168H32.5635L30.6689 35H29.9805L28.0664 29.7168H28.9893L30.332 33.7744ZM35.5566 35.0977C34.8405 35.0977 34.2578 34.8633 33.8086 34.3945C33.3594 33.9225 33.1348 33.2926 33.1348 32.5049V32.3389C33.1348 31.8148 33.234 31.3477 33.4326 30.9375C33.6344 30.5241 33.9144 30.2018 34.2725 29.9707C34.6338 29.7363 35.0244 29.6191 35.4443 29.6191C36.1312 29.6191 36.665 29.8454 37.0459 30.2979C37.4268 30.7503 37.6172 31.3981 37.6172 32.2412V32.6172H34.0381C34.0511 33.138 34.2025 33.5596 34.4922 33.8818C34.7852 34.2008 35.1562 34.3604 35.6055 34.3604C35.9245 34.3604 36.1947 34.2952 36.416 34.165C36.6374 34.0348 36.8311 33.8623 36.9971 33.6475L37.5488 34.0771C37.1061 34.7575 36.4421 35.0977 35.5566 35.0977ZM35.4443 30.3613C35.0798 30.3613 34.7738 30.4948 34.5264 30.7617C34.279 31.0254 34.126 31.3965 34.0674 31.875H36.7139V31.8066C36.6878 31.3477 36.5641 30.9928 36.3428 30.7422C36.1214 30.4883 35.8219 30.3613 35.4443 30.3613ZM41.2207 30.5273C41.084 30.5046 40.9359 30.4932 40.7764 30.4932C40.1839 30.4932 39.7819 30.7454 39.5703 31.25V35H38.667V29.7168H39.5459L39.5605 30.3271C39.8568 29.8551 40.2767 29.6191 40.8203 29.6191C40.9961 29.6191 41.1296 29.6419 41.2207 29.6875V30.5273Z" fill="#707070"/>
<path d="M27.5 2.53125C21.4424 2.53125 16.5312 7.4424 16.5312 13.5C16.5312 19.5576 21.4424 24.4688 27.5 24.4688C33.5576 24.4688 38.4688 19.5576 38.4688 13.5C38.4688 7.4424 33.5576 2.53125 27.5 2.53125ZM30.8028 18.5625L29.6094 19.7559L23.3535 13.5L29.6094 7.24412L30.8028 8.4375L25.7403 13.5L30.8028 18.5625Z" fill="#707070"/>
</svg>
