<svg width="55" height="45" viewBox="0 0 55 45" fill="none" xmlns="http://www.w3.org/2000/svg">
<path d="M37.5895 21H36.7746C36.7545 21 36.7344 20.9894 36.7143 20.9683C36.6539 20.9471 36.6137 20.9365 36.5936 20.9365C36.171 20.873 35.7686 20.7355 35.3863 20.5238C35.004 20.3122 34.672 20.0476 34.3903 19.7302C34.1087 19.4127 33.8773 19.0529 33.6962 18.6508C33.5151 18.2487 33.4145 17.8254 33.3944 17.381C33.3139 16.3862 33.5201 15.5079 34.0131 14.746C34.506 13.9841 35.1952 13.4656 36.0805 13.1905C36.1408 13.1693 36.2113 13.1481 36.2917 13.127C36.3722 13.1058 36.4577 13.0847 36.5483 13.0635C36.6388 13.0423 36.7143 13.0212 36.7746 13H37.6499L37.7706 13.0635C38.5553 13.1905 39.2344 13.5344 39.8078 14.0952C40.3813 14.6561 40.7485 15.3492 40.9095 16.1746L41 16.5556V17.4762C40.9799 17.5397 40.9598 17.582 40.9396 17.6032C40.8189 18.4286 40.497 19.1323 39.9738 19.7143C39.4507 20.2963 38.8068 20.6825 38.0423 20.873L37.7706 20.9683C37.6901 20.9894 37.6298 21 37.5895 21ZM14.4105 13H15.2254C15.2455 13 15.2656 13.0106 15.2857 13.0317L15.4064 13.0635C15.9899 13.1481 16.5181 13.3598 16.9909 13.6984C17.4638 14.037 17.8461 14.4656 18.1378 14.9841C18.4296 15.5026 18.5855 16.0582 18.6056 16.6508C18.666 17.6243 18.4497 18.4974 17.9567 19.2698C17.4638 20.0423 16.7746 20.5661 15.8893 20.8413C15.829 20.8413 15.6076 20.8942 15.2254 21H14.4105C14.3903 21 14.3602 20.9894 14.3199 20.9683C14.2797 20.9471 14.2495 20.9365 14.2294 20.9365C12.6801 20.6402 11.6539 19.6878 11.1509 18.0794C11.1308 18.0159 11.1107 17.9471 11.0905 17.873C11.0704 17.7989 11.0553 17.7196 11.0453 17.6349C11.0352 17.5503 11.0201 17.4868 11 17.4444V16.5556L11.0302 16.5238C11.0503 16.4603 11.0604 16.418 11.0604 16.3968C11.1408 15.8466 11.3119 15.3439 11.5734 14.8889C11.835 14.4339 12.172 14.0529 12.5845 13.746C12.997 13.4392 13.4648 13.2222 13.9879 13.0952C14.0684 13.0741 14.2093 13.0423 14.4105 13ZM25.5775 13H26.4225L26.498 13.0317L26.6036 13.0635C27.4688 13.2116 28.2082 13.6296 28.8219 14.3175C29.4356 15.0053 29.7626 15.7937 29.8028 16.6825C29.8431 17.6984 29.6016 18.5926 29.0785 19.3651C28.5553 20.1376 27.8511 20.6402 26.9658 20.873C26.8451 20.8942 26.664 20.9365 26.4225 21H25.5775C25.5573 21 25.5372 20.9894 25.5171 20.9683L25.3964 20.9365C24.5312 20.8095 23.7917 20.3968 23.1781 19.6984C22.5644 19 22.2374 18.2063 22.1972 17.3175C22.1771 16.9153 22.2072 16.5291 22.2877 16.1587C22.3682 15.7884 22.4889 15.4392 22.6499 15.1111C22.8109 14.7831 23.007 14.4868 23.2384 14.2222C23.4698 13.9577 23.7364 13.7354 24.0382 13.5556C24.34 13.3757 24.672 13.2328 25.0342 13.127C25.1549 13.1058 25.336 13.0635 25.5775 13Z" fill="#707070"/>
<path d="M17.8125 37.2168V40H16.875V32.8906H19.4971C20.2751 32.8906 20.8838 33.0892 21.3232 33.4863C21.766 33.8835 21.9873 34.4092 21.9873 35.0635C21.9873 35.7536 21.7708 36.2858 21.3379 36.6602C20.9082 37.0312 20.2913 37.2168 19.4873 37.2168H17.8125ZM17.8125 36.4502H19.4971C19.9984 36.4502 20.3825 36.333 20.6494 36.0986C20.9163 35.861 21.0498 35.5192 21.0498 35.0732C21.0498 34.6501 20.9163 34.3115 20.6494 34.0576C20.3825 33.8037 20.0163 33.6719 19.5508 33.6621H17.8125V36.4502ZM25.166 40.0977C24.4499 40.0977 23.8672 39.8633 23.418 39.3945C22.9688 38.9225 22.7441 38.2926 22.7441 37.5049V37.3389C22.7441 36.8148 22.8434 36.3477 23.042 35.9375C23.2438 35.5241 23.5238 35.2018 23.8818 34.9707C24.2432 34.7363 24.6338 34.6191 25.0537 34.6191C25.7406 34.6191 26.2744 34.8454 26.6553 35.2979C27.0361 35.7503 27.2266 36.3981 27.2266 37.2412V37.6172H23.6475C23.6605 38.138 23.8118 38.5596 24.1016 38.8818C24.3945 39.2008 24.7656 39.3604 25.2148 39.3604C25.5339 39.3604 25.804 39.2952 26.0254 39.165C26.2467 39.0348 26.4404 38.8623 26.6064 38.6475L27.1582 39.0771C26.7155 39.7575 26.0514 40.0977 25.166 40.0977ZM25.0537 35.3613C24.6891 35.3613 24.3831 35.4948 24.1357 35.7617C23.8883 36.0254 23.7354 36.3965 23.6768 36.875H26.3232V36.8066C26.2972 36.3477 26.1735 35.9928 25.9521 35.7422C25.7308 35.4883 25.4313 35.3613 25.0537 35.3613ZM30.8301 35.5273C30.6934 35.5046 30.5452 35.4932 30.3857 35.4932C29.7933 35.4932 29.3913 35.7454 29.1797 36.25V40H28.2764V34.7168H29.1553L29.1699 35.3271C29.4661 34.8551 29.8861 34.6191 30.4297 34.6191C30.6055 34.6191 30.7389 34.6419 30.8301 34.6875V35.5273ZM31.9678 40V35.415H31.1328V34.7168H31.9678V34.2676C31.9678 33.6784 32.1354 33.2194 32.4707 32.8906C32.8092 32.5618 33.2861 32.3975 33.9014 32.3975C34.266 32.3975 34.7266 32.4967 35.2832 32.6953L35.1318 33.457C34.7249 33.2943 34.3376 33.2129 33.9697 33.2129C33.5824 33.2129 33.3024 33.3008 33.1299 33.4766C32.9606 33.6491 32.876 33.9095 32.876 34.2578V34.7168H33.9551V35.415H32.876V40H31.9678ZM35.7324 40H34.8242V34.7168H35.7324V40ZM38.1836 40H37.2803V32.5H38.1836V40Z" fill="#707070"/>
</svg>
